<?xml version="1.0" encoding="utf-8"?>
<!-- Generator: Adobe Illustrator 17.0.0, SVG Export Plug-In . SVG Version: 6.00 Build 0)  -->
<!DOCTYPE svg PUBLIC "-//W3C//DTD SVG 1.1//EN" "http://www.w3.org/Graphics/SVG/1.1/DTD/svg11.dtd">
<svg version="1.1" id="Layer_1" xmlns="http://www.w3.org/2000/svg" xmlns:xlink="http://www.w3.org/1999/xlink" x="0px" y="0px"
	 width="512px" height="512px" viewBox="0 0 512 512" enable-background="new 0 0 512 512" xml:space="preserve">
<rect fill="#E2F4F7" width="512" height="512"/>
<g>
	<path fill="#8F6652" d="M347.941,347.083c0-10.235,0-19.446-2.559-27.975c0-0.171,0.682-0.171,0.853-0.341
		c-11.599-39.745-47.25-61.408-90.065-61.408s-78.807,21.663-90.235,61.408c-2.559,8.699-1.535,18.081-1.535,28.316
		c0,20.81,9.382,39.744,32.921,52.879v25.757c-11.77,6.482-15.181,18.593-15.181,30.363h72.495c0-11.77,1.365-23.881-10.405-30.363
		v-7.505c0,0.341,11.77,0.682,11.77,0.682v2.047h0.341H256v-2.047c0,0,11.77-0.171,11.77-0.512v7.505
		c0,6.482-9.723,18.593-9.723,30.363h72.495c0-11.77-3.923-23.881-15.693-30.363v-25.587
		C338.048,386.827,347.941,368.064,347.941,347.083"/>
	<path fill="#733F2B" d="M180.093,111.175c-4.094-4.264-9.552-9.211-14.158-11.94l-1.535-0.853
		c-0.341,1.023-0.853,3.241-1.365,5.629c-0.853,5.288-0.682,10.576-0.682,17.911c0.171,7.164,0.171,16.034-0.512,25.075
		c-0.682,9.041-2.047,18.252-3.923,27.122c-3.923,17.74-9.552,34.457-15.864,50.32l-0.341,1.023
		c-8.017,20.128-30.874,29.851-50.832,21.834c-20.128-8.017-29.851-30.874-21.834-50.832c1.365-3.412,3.241-6.652,5.458-9.382
		c8.529-11.088,16.205-22.175,22.346-33.604c3.07-5.629,5.629-11.429,8.017-17.399c2.218-6.141,4.094-12.623,6.141-20.64
		c2.047-8.017,4.776-17.911,9.382-27.122c2.218-4.606,4.947-9.552,9.211-14.84c2.218-2.559,4.776-5.288,8.017-7.676
		c3.241-2.388,7.505-4.776,12.111-5.97c4.606-1.365,9.382-1.365,13.646-0.853c4.264,0.512,7.676,1.876,10.746,3.412
		c5.97,2.9,10.235,6.482,13.817,9.893c3.582,3.582,6.482,7.164,9.211,10.746c2.729,3.753,4.947,7.164,7.505,11.429
		c4.094,7.164,1.706,16.205-5.458,20.299c-6.141,3.412-13.646,2.218-18.252-2.729L180.093,111.175z"/>
	<path fill="#733F2B" d="M331.907,111.175c4.094-4.264,9.552-9.211,14.158-11.94l1.535-0.853c0.341,1.023,0.853,3.241,1.365,5.629
		c0.853,5.288,0.682,10.576,0.682,17.911c-0.171,7.164-0.171,16.034,0.512,25.075c0.682,9.041,2.047,18.252,3.923,27.122
		c3.753,17.74,9.552,34.457,15.864,50.32l0.341,1.023c8.017,20.128,30.874,29.851,50.832,21.834
		c20.128-8.017,29.851-30.874,21.834-50.832c-1.365-3.412-3.241-6.652-5.458-9.382c-8.529-11.088-16.205-22.175-22.346-33.604
		c-3.07-5.629-5.629-11.429-8.017-17.399c-2.217-6.141-4.094-12.623-6.141-20.64c-2.047-8.017-4.776-17.911-9.382-27.122
		c-2.217-4.606-4.947-9.552-9.211-14.84c-2.217-2.559-4.776-5.288-8.017-7.676c-3.241-2.388-7.505-4.776-12.111-5.97
		c-4.606-1.365-9.382-1.365-13.646-0.853c-4.264,0.512-7.676,1.876-10.746,3.412c-5.97,2.9-10.235,6.482-13.817,9.893
		c-3.582,3.582-6.482,7.164-9.211,10.746c-2.729,3.753-4.947,7.164-7.505,11.429c-4.094,7.164-1.706,16.205,5.458,20.299
		c6.141,3.412,13.646,2.218,18.252-2.729L331.907,111.175z"/>
	<path fill="#8F6652" stroke="#7C503E" stroke-miterlimit="10" d="M255.829,79.788v-7.335c-47.079,0-89.041,33.945-97.058,78.124
		c0,0-4.094,18.422-5.8,27.804c-4.776,25.587-11.429,42.985-11.429,70.107c0,57.143,43.838,103.54,114.457,103.54v-1.706h0.512H256
		v1.706c70.278-0.171,114.628-46.568,114.628-103.711"/>
	<path fill="#8F6652" stroke="#7C503E" stroke-miterlimit="10" d="M370.628,248.319c0-27.122-6.311-44.521-11.088-70.107
		c-1.706-9.382-6.141-27.975-6.141-27.975c-8.017-44.179-50.491-77.954-97.57-77.954v7.505"/>
	<rect x="253.441" y="313.65" fill="#3B1414" width="4.094" height="23.881"/>
	<path fill="#733F2B" d="M316.896,272.541c0,22.687-27.122,41.109-60.384,41.109c-33.433,0-60.384-18.422-60.384-41.109
		c0-22.687,27.122-41.109,60.384-41.109C289.774,231.432,316.896,249.683,316.896,272.541"/>
	<path fill="#411713" d="M254.465,341.624c-22.346,0-31.386-8.529-31.727-8.87c-0.853-0.853-0.853-2.047,0-2.9
		c0.853-0.853,2.047-0.853,2.9,0c0,0,8.358,7.676,28.998,7.676c18.934,0,28.998-7.676,29.169-7.847
		c0.853-0.682,2.217-0.512,2.9,0.341c0.682,0.853,0.512,2.217-0.341,2.9C285.68,333.266,274.764,341.624,254.465,341.624"/>
	<path fill="#411713" d="M326.107,183.158c0,10.405-6.653,18.934-15.011,18.934c-8.358,0-15.011-8.529-15.011-18.934
		c0-10.405,6.823-18.934,15.011-18.934C319.284,164.224,326.107,172.753,326.107,183.158"/>
	<path fill="#411713" d="M216.256,183.158c0,10.405-6.823,18.934-15.011,18.934s-15.011-8.529-15.011-18.934
		c0-10.405,6.823-18.934,15.011-18.934S216.256,172.753,216.256,183.158"/>
	<path fill="#FFFFFF" d="M201.245,174.629c0,3.241,2.388,5.8,5.458,5.8c3.07,0,5.458-2.559,5.458-5.8s-2.388-5.8-5.458-5.8
		C203.633,168.83,201.245,171.388,201.245,174.629"/>
	<path fill="#FFFFFF" d="M311.438,174.629c0,3.241,2.388,5.8,5.458,5.8c3.07,0,5.458-2.559,5.458-5.8s-2.388-5.8-5.458-5.8
		C313.826,168.83,311.438,171.388,311.438,174.629"/>
</g>
</svg>
