<?xml version="1.0" encoding="utf-8"?>
<!-- Generator: Adobe Illustrator 17.0.0, SVG Export Plug-In . SVG Version: 6.00 Build 0)  -->
<!DOCTYPE svg PUBLIC "-//W3C//DTD SVG 1.1//EN" "http://www.w3.org/Graphics/SVG/1.1/DTD/svg11.dtd">
<svg version="1.1" id="Layer_1" xmlns="http://www.w3.org/2000/svg" xmlns:xlink="http://www.w3.org/1999/xlink" x="0px" y="0px"
	 width="512px" height="512px" viewBox="0 0 512 512" enable-background="new 0 0 512 512" xml:space="preserve">
<g>
	<g id="surface1">
		<g>
			<g>
				<path fill="#010101" d="M205.234,456.427c-7.039-7.039-7.039-18.075,0-25.114c-7.039-7.039-7.039-18.075,0-25.114
					s18.075-7.039,25.114,0c2.882,2.882,4.611,6.475,5.077,10.497h46.364c0.49-3.973,2.275-7.707,5.064-10.497
					c7.039-7.039,18.075-7.039,25.114,0s7.039,18.075,0,25.114c7.039,7.039,7.039,18.075,0,25.114s-18.075,7.039-25.114,0
					c-2.882-2.882-4.611-6.475-5.077-10.497h-46.364c-0.49,3.973-2.275,7.707-5.064,10.497
					C223.309,463.466,212.273,463.466,205.234,456.427z"/>
			</g>
		</g>
	</g>
	<g>
		<path fill="#222223" d="M454.699,267.6v-92.752H62.502v101.913c0,56.285,87.975,101.913,196.498,101.913
			s196.497-45.628,196.497-101.913C455.497,273.673,455.217,270.619,454.699,267.6z"/>
		<path d="M259,382.453c-53.081,0-103.043-10.752-140.684-30.273c-38.429-19.932-59.592-46.715-59.592-75.419V171.069h399.754
			v96.215c0.53,3.19,0.799,6.377,0.799,9.477c0,28.703-21.163,55.487-59.591,75.419C362.043,371.701,312.08,382.453,259,382.453z
			 M66.281,178.627v98.134c0,54.111,86.453,98.134,192.719,98.134s192.719-44.023,192.719-98.134c0-2.778-0.251-5.645-0.744-8.521
			l-0.055-0.639v-88.974H66.281z"/>
	</g>
	<g>
		<ellipse fill="#222223" cx="259" cy="184.009" rx="196.497" ry="101.913"/>
		<path fill="#FFFFFF" d="M259,290.457c-53.199,0-103.286-10.781-141.033-30.359c-38.691-20.067-59.999-47.09-59.999-76.089
			s21.308-56.022,59.999-76.089C155.714,88.343,205.8,77.562,259,77.562s103.285,10.781,141.032,30.359
			c38.691,20.067,60,47.09,60,76.089s-21.309,56.021-60,76.089C362.285,279.676,312.2,290.457,259,290.457z M259,86.631
			c-51.773,0-100.377,10.42-136.857,29.34c-35.536,18.43-55.106,42.593-55.106,68.038c0,25.444,19.57,49.608,55.106,68.038
			c36.48,18.921,85.083,29.34,136.857,29.34c51.772,0,100.376-10.42,136.857-29.34c35.535-18.43,55.105-42.594,55.105-68.038
			c0-25.445-19.57-49.608-55.105-68.038C359.377,97.05,310.774,86.631,259,86.631z"/>
	</g>
	<g>
		<ellipse fill="#010101" cx="364.806" cy="184.009" rx="27.94" ry="14.491"/>
		<path fill="#A7A9AC" d="M364.806,202.279c-17.787,0-31.72-8.025-31.72-18.27c0-10.245,13.933-18.27,31.72-18.27
			c17.785,0,31.718,8.026,31.718,18.27C396.525,194.254,382.592,202.279,364.806,202.279z M364.806,173.297
			c-13.83,0-24.162,5.656-24.162,10.713c0,5.056,10.333,10.712,24.162,10.712c13.828,0,24.161-5.656,24.161-10.712
			C388.967,178.952,378.634,173.297,364.806,173.297z"/>
	</g>
	<g>
		<ellipse fill="#010101" cx="153.194" cy="184.009" rx="27.94" ry="14.491"/>
		<path fill="#A7A9AC" d="M153.194,202.279c-17.786,0-31.719-8.025-31.719-18.27c0-10.245,13.933-18.27,31.719-18.27
			s31.719,8.026,31.719,18.27C184.913,194.254,170.98,202.279,153.194,202.279z M153.194,173.297
			c-13.829,0-24.161,5.656-24.161,10.713c0,5.056,10.333,10.712,24.161,10.712c13.829,0,24.161-5.656,24.161-10.712
			C177.355,178.952,167.022,173.297,153.194,173.297z"/>
	</g>
	<g>
		<circle fill="#FFFFFF" cx="311.674" cy="332.917" r="9.816"/>
		<path d="M311.674,343.489c-5.829,0-10.572-4.743-10.572-10.572c0-5.829,4.743-10.572,10.572-10.572
			c5.829,0,10.572,4.743,10.572,10.572C322.246,338.746,317.503,343.489,311.674,343.489z M311.674,323.857
			c-4.997,0-9.06,4.064-9.06,9.06c0,4.997,4.064,9.06,9.06,9.06c4.997,0,9.06-4.064,9.06-9.06
			C320.735,327.92,316.671,323.857,311.674,323.857z"/>
	</g>
	<g>
		<circle fill="#FFFFFF" cx="352.485" cy="323.847" r="9.816"/>
		<path d="M352.485,334.419c-5.829,0-10.572-4.743-10.572-10.572c0-5.829,4.743-10.572,10.572-10.572s10.572,4.743,10.572,10.572
			C363.057,329.677,358.314,334.419,352.485,334.419z M352.485,314.787c-4.997,0-9.06,4.064-9.06,9.06s4.064,9.06,9.06,9.06
			s9.06-4.064,9.06-9.06S357.482,314.787,352.485,314.787z"/>
	</g>
	<g>
		<circle fill="#FFFFFF" cx="387.465" cy="305.11" r="9.816"/>
		<path d="M387.466,315.68c-5.829,0-10.572-4.741-10.572-10.57c0-5.829,4.743-10.572,10.572-10.572s10.57,4.743,10.57,10.572
			C398.036,310.939,393.295,315.68,387.466,315.68z M387.466,296.05c-4.997,0-9.06,4.064-9.06,9.06c0,4.995,4.064,9.059,9.06,9.059
			c4.995,0,9.059-4.064,9.059-9.059C396.525,300.114,392.461,296.05,387.466,296.05z"/>
	</g>
	<g>
		<path fill="#FFFFFF" d="M278.749,388.666c-7.479-1.872-17.008-8.539-19.92-29.671c-2.188-15.871-0.108-37.181,6.012-61.628
			l0.872-3.485l3.593,0.052c0.31,0.013,31.593,0.388,50.876-5.423l2.616,8.682c-16.798,5.062-40.894,5.745-49.998,5.814
			c-5.193,21.873-6.917,40.745-4.988,54.751c1.004,7.28,4.044,19.834,13.139,22.11L278.749,388.666z"/>
	</g>
	<g>
		<g>
			<circle fill="#010101" cx="259" cy="378.674" r="20.849"/>
		</g>
		<g>
			<path fill="#FFFFFF" d="M259,403.302c-13.58,0-24.628-11.049-24.628-24.629S245.42,354.047,259,354.047
				s24.629,11.047,24.629,24.627S272.58,403.302,259,403.302z M259,361.604c-9.412,0-17.07,7.658-17.07,17.07
				c0,9.413,7.658,17.071,17.07,17.071c9.413,0,17.071-7.658,17.071-17.071C276.071,369.262,268.413,361.604,259,361.604z"/>
		</g>
	</g>
	<g>
		<g>
			<rect x="252.908" y="378.534" fill="#010101" width="12.184" height="60.741"/>
		</g>
	</g>
	<g>
		<g>
			<g>
				<defs>
					<path id="SVGID_1_" d="M259,290.457c-53.199,0-103.286-10.781-141.033-30.359c-38.691-20.067-59.999-47.09-59.999-76.089
						s21.308-56.021,59.999-76.089C155.714,88.343,205.801,77.561,259,77.561c53.2,0,103.285,10.781,141.032,30.359
						c38.691,20.067,60,47.09,60,76.089s-21.309,56.021-60,76.089C362.285,279.675,312.2,290.457,259,290.457z M259,86.63
						c-51.773,0-100.377,10.42-136.857,29.34c-35.536,18.43-55.106,42.594-55.106,68.038s19.57,49.608,55.106,68.038
						c36.48,18.921,85.083,29.34,136.857,29.34c51.772,0,100.376-10.42,136.857-29.34c35.535-18.43,55.105-42.594,55.105-68.038
						s-19.57-49.608-55.105-68.038C359.376,97.05,310.772,86.63,259,86.63z"/>
				</defs>
				<clipPath id="SVGID_2_">
					<use xlink:href="#SVGID_1_"  overflow="visible"/>
				</clipPath>
				<polygon clip-path="url(#SVGID_2_)" fill="#20419A" points="67.037,121.87 182.383,86.63 330.232,86.63 385.112,266.266 
					335.616,281.388 67.037,281.388 				"/>
				<polygon clip-path="url(#SVGID_2_)" fill="#20419A" points="330.524,86.63 385.379,266.184 385.112,266.266 330.232,86.63 				
					"/>
				<polygon clip-path="url(#SVGID_2_)" fill="#20429B" points="330.816,86.63 385.646,266.103 385.379,266.184 330.524,86.63 				
					"/>
				<polygon clip-path="url(#SVGID_2_)" fill="#20429B" points="331.108,86.63 385.913,266.021 385.646,266.103 330.816,86.63 				
					"/>
				<polygon clip-path="url(#SVGID_2_)" fill="#20439B" points="331.399,86.63 386.18,265.94 385.913,266.021 331.108,86.63 				"/>
				<polygon clip-path="url(#SVGID_2_)" fill="#20439C" points="331.691,86.63 386.447,265.858 386.18,265.94 331.399,86.63 				"/>
				<polygon clip-path="url(#SVGID_2_)" fill="#20449C" points="331.983,86.63 386.714,265.777 386.447,265.858 331.691,86.63 				
					"/>
				<polygon clip-path="url(#SVGID_2_)" fill="#20459C" points="332.275,86.63 386.981,265.695 386.714,265.777 331.983,86.63 				
					"/>
				<polygon clip-path="url(#SVGID_2_)" fill="#20459D" points="332.567,86.63 387.248,265.614 386.981,265.695 332.275,86.63 				
					"/>
				<polygon clip-path="url(#SVGID_2_)" fill="#20469D" points="332.859,86.63 387.515,265.532 387.248,265.614 332.567,86.63 				
					"/>
				<polygon clip-path="url(#SVGID_2_)" fill="#20469D" points="333.15,86.63 387.782,265.451 387.515,265.532 332.859,86.63 				
					"/>
				<polygon clip-path="url(#SVGID_2_)" fill="#21479E" points="333.442,86.63 388.049,265.369 387.782,265.451 333.15,86.63 				
					"/>
				<polygon clip-path="url(#SVGID_2_)" fill="#21479E" points="333.734,86.63 388.315,265.287 388.049,265.369 333.442,86.63 				
					"/>
				<polygon clip-path="url(#SVGID_2_)" fill="#21489E" points="334.026,86.63 388.582,265.206 388.315,265.287 333.734,86.63 				
					"/>
				<polygon clip-path="url(#SVGID_2_)" fill="#21499F" points="334.318,86.63 388.849,265.124 388.582,265.206 334.026,86.63 				
					"/>
				<polygon clip-path="url(#SVGID_2_)" fill="#21499F" points="334.61,86.63 389.116,265.043 388.849,265.124 334.318,86.63 				
					"/>
				<polygon clip-path="url(#SVGID_2_)" fill="#224A9F" points="334.901,86.63 389.383,264.961 389.116,265.043 334.61,86.63 				
					"/>
				<polygon clip-path="url(#SVGID_2_)" fill="#224AA0" points="335.193,86.63 389.65,264.88 389.383,264.961 334.901,86.63 				"/>
				<polygon clip-path="url(#SVGID_2_)" fill="#224BA0" points="335.485,86.63 389.917,264.798 389.65,264.88 335.193,86.63 				"/>
				<polygon clip-path="url(#SVGID_2_)" fill="#224BA0" points="335.777,86.63 390.184,264.717 389.917,264.798 335.485,86.63 				
					"/>
				<polygon clip-path="url(#SVGID_2_)" fill="#234CA1" points="336.069,86.63 390.451,264.635 390.184,264.717 335.777,86.63 				
					"/>
				<polygon clip-path="url(#SVGID_2_)" fill="#234DA1" points="336.361,86.63 390.718,264.554 390.451,264.635 336.069,86.63 				
					"/>
				<polygon clip-path="url(#SVGID_2_)" fill="#234DA1" points="336.652,86.63 390.985,264.472 390.718,264.554 336.361,86.63 				
					"/>
				<polygon clip-path="url(#SVGID_2_)" fill="#234EA1" points="336.944,86.63 391.252,264.39 390.985,264.472 336.652,86.63 				
					"/>
				<polygon clip-path="url(#SVGID_2_)" fill="#244EA2" points="337.236,86.63 391.519,264.309 391.252,264.39 336.944,86.63 				
					"/>
				<polygon clip-path="url(#SVGID_2_)" fill="#244FA2" points="337.528,86.63 391.785,264.227 391.519,264.309 337.236,86.63 				
					"/>
				<polygon clip-path="url(#SVGID_2_)" fill="#244FA2" points="337.82,86.63 392.052,264.146 391.785,264.227 337.528,86.63 				
					"/>
				<polygon clip-path="url(#SVGID_2_)" fill="#2550A3" points="338.112,86.63 392.319,264.064 392.052,264.146 337.82,86.63 				
					"/>
				<polygon clip-path="url(#SVGID_2_)" fill="#2550A3" points="338.403,86.63 392.586,263.983 392.319,264.064 338.112,86.63 				
					"/>
				<polygon clip-path="url(#SVGID_2_)" fill="#2551A3" points="338.695,86.63 392.853,263.901 392.586,263.983 338.403,86.63 				
					"/>
				<polygon clip-path="url(#SVGID_2_)" fill="#2551A4" points="338.987,86.63 393.12,263.82 392.853,263.901 338.695,86.63 				"/>
				<polygon clip-path="url(#SVGID_2_)" fill="#2652A4" points="339.279,86.63 393.387,263.738 393.12,263.82 338.987,86.63 				"/>
				<polygon clip-path="url(#SVGID_2_)" fill="#2653A4" points="339.571,86.63 393.654,263.656 393.387,263.738 339.279,86.63 				
					"/>
				<polygon clip-path="url(#SVGID_2_)" fill="#2653A5" points="339.863,86.63 393.921,263.575 393.654,263.656 339.571,86.63 				
					"/>
				<polygon clip-path="url(#SVGID_2_)" fill="#2654A5" points="340.154,86.63 394.188,263.493 393.921,263.575 339.863,86.63 				
					"/>
				<polygon clip-path="url(#SVGID_2_)" fill="#2754A5" points="340.446,86.63 394.455,263.412 394.188,263.493 340.154,86.63 				
					"/>
				<polygon clip-path="url(#SVGID_2_)" fill="#2755A6" points="340.738,86.63 394.722,263.33 394.455,263.412 340.446,86.63 				
					"/>
				<polygon clip-path="url(#SVGID_2_)" fill="#2755A6" points="341.03,86.63 394.988,263.249 394.722,263.33 340.738,86.63 				"/>
				<polygon clip-path="url(#SVGID_2_)" fill="#2856A6" points="341.322,86.63 395.255,263.167 394.988,263.249 341.03,86.63 				
					"/>
				<polygon clip-path="url(#SVGID_2_)" fill="#2856A7" points="341.614,86.63 395.522,263.086 395.255,263.167 341.322,86.63 				
					"/>
				<polygon clip-path="url(#SVGID_2_)" fill="#2857A7" points="341.905,86.63 395.789,263.004 395.522,263.086 341.614,86.63 				
					"/>
				<polygon clip-path="url(#SVGID_2_)" fill="#2958A7" points="342.197,86.63 396.056,262.923 395.789,263.004 341.905,86.63 				
					"/>
				<polygon clip-path="url(#SVGID_2_)" fill="#2958A8" points="342.489,86.63 396.323,262.841 396.056,262.923 342.197,86.63 				
					"/>
				<polygon clip-path="url(#SVGID_2_)" fill="#2959A8" points="342.781,86.63 396.59,262.759 396.323,262.841 342.489,86.63 				
					"/>
				<polygon clip-path="url(#SVGID_2_)" fill="#2959A8" points="343.073,86.63 396.857,262.678 396.59,262.759 342.781,86.63 				
					"/>
				<polygon clip-path="url(#SVGID_2_)" fill="#2A5AA9" points="343.365,86.63 397.124,262.596 396.857,262.678 343.073,86.63 				
					"/>
				<polygon clip-path="url(#SVGID_2_)" fill="#2A5AA9" points="343.656,86.63 397.391,262.515 397.124,262.596 343.365,86.63 				
					"/>
				<polygon clip-path="url(#SVGID_2_)" fill="#2A5BAA" points="343.948,86.63 397.658,262.433 397.391,262.515 343.656,86.63 				
					"/>
				<polygon clip-path="url(#SVGID_2_)" fill="#2A5BAA" points="344.24,86.63 397.925,262.352 397.658,262.433 343.948,86.63 				
					"/>
				<polygon clip-path="url(#SVGID_2_)" fill="#2B5CAA" points="344.532,86.63 398.192,262.27 397.925,262.352 344.24,86.63 				"/>
				<polygon clip-path="url(#SVGID_2_)" fill="#2B5CAB" points="344.824,86.63 398.458,262.189 398.192,262.27 344.532,86.63 				
					"/>
				<polygon clip-path="url(#SVGID_2_)" fill="#2B5DAB" points="345.116,86.63 398.725,262.107 398.458,262.189 344.824,86.63 				
					"/>
				<polygon clip-path="url(#SVGID_2_)" fill="#2C5DAB" points="345.407,86.63 398.992,262.026 398.725,262.107 345.116,86.63 				
					"/>
				<polygon clip-path="url(#SVGID_2_)" fill="#2C5EAC" points="345.699,86.63 399.259,261.944 398.992,262.026 345.407,86.63 				
					"/>
				<polygon clip-path="url(#SVGID_2_)" fill="#2C5EAC" points="345.991,86.63 399.526,261.862 399.259,261.944 345.699,86.63 				
					"/>
				<polygon clip-path="url(#SVGID_2_)" fill="#2C5FAC" points="346.283,86.63 399.793,261.781 399.526,261.862 345.991,86.63 				
					"/>
				<polygon clip-path="url(#SVGID_2_)" fill="#2D60AD" points="346.575,86.63 400.06,261.699 399.793,261.781 346.283,86.63 				
					"/>
				<polygon clip-path="url(#SVGID_2_)" fill="#2D60AD" points="346.867,86.63 400.327,261.618 400.06,261.699 346.575,86.63 				
					"/>
				<polygon clip-path="url(#SVGID_2_)" fill="#2D61AD" points="347.158,86.63 400.594,261.536 400.327,261.618 346.867,86.63 				
					"/>
				<polygon clip-path="url(#SVGID_2_)" fill="#2E61AE" points="347.45,86.63 400.861,261.455 400.594,261.536 347.158,86.63 				
					"/>
				<polygon clip-path="url(#SVGID_2_)" fill="#2E62AE" points="347.742,86.63 401.128,261.373 400.861,261.455 347.45,86.63 				
					"/>
				<polygon clip-path="url(#SVGID_2_)" fill="#2E62AE" points="348.034,86.63 401.395,261.292 401.128,261.373 347.742,86.63 				
					"/>
				<polygon clip-path="url(#SVGID_2_)" fill="#2E63AF" points="348.326,86.63 401.661,261.21 401.395,261.292 348.034,86.63 				
					"/>
				<polygon clip-path="url(#SVGID_2_)" fill="#2F63AF" points="348.618,86.63 401.928,261.129 401.661,261.21 348.326,86.63 				
					"/>
				<polygon clip-path="url(#SVGID_2_)" fill="#2F64AF" points="348.909,86.63 402.195,261.047 401.928,261.129 348.618,86.63 				
					"/>
				<polygon clip-path="url(#SVGID_2_)" fill="#2F64B0" points="349.201,86.63 402.462,260.965 402.195,261.047 348.909,86.63 				
					"/>
				<polygon clip-path="url(#SVGID_2_)" fill="#3065B0" points="349.493,86.63 402.729,260.884 402.462,260.965 349.201,86.63 				
					"/>
				<polygon clip-path="url(#SVGID_2_)" fill="#3065B0" points="349.785,86.63 402.996,260.802 402.729,260.884 349.493,86.63 				
					"/>
				<polygon clip-path="url(#SVGID_2_)" fill="#3066B1" points="350.077,86.63 403.263,260.721 402.996,260.802 349.785,86.63 				
					"/>
				<polygon clip-path="url(#SVGID_2_)" fill="#3166B1" points="350.369,86.63 403.53,260.639 403.263,260.721 350.077,86.63 				
					"/>
				<polygon clip-path="url(#SVGID_2_)" fill="#3167B1" points="350.66,86.63 403.797,260.558 403.53,260.639 350.369,86.63 				"/>
				<polygon clip-path="url(#SVGID_2_)" fill="#3167B2" points="350.952,86.63 404.064,260.476 403.797,260.558 350.66,86.63 				
					"/>
				<polygon clip-path="url(#SVGID_2_)" fill="#3268B2" points="351.244,86.63 404.331,260.395 404.064,260.476 350.952,86.63 				
					"/>
				<polygon clip-path="url(#SVGID_2_)" fill="#3268B2" points="351.536,86.63 404.598,260.313 404.331,260.395 351.244,86.63 				
					"/>
				<polygon clip-path="url(#SVGID_2_)" fill="#3269B3" points="351.828,86.63 404.865,260.232 404.598,260.313 351.536,86.63 				
					"/>
				<polygon clip-path="url(#SVGID_2_)" fill="#3369B3" points="352.12,86.63 405.131,260.15 404.865,260.232 351.828,86.63 				"/>
				<polygon clip-path="url(#SVGID_2_)" fill="#336AB3" points="352.411,86.63 405.398,260.068 405.131,260.15 352.12,86.63 				"/>
				<polygon clip-path="url(#SVGID_2_)" fill="#336BB4" points="352.703,86.63 405.665,259.987 405.398,260.068 352.411,86.63 				
					"/>
				<polygon clip-path="url(#SVGID_2_)" fill="#346BB4" points="352.995,86.63 405.932,259.905 405.665,259.987 352.703,86.63 				
					"/>
				<polygon clip-path="url(#SVGID_2_)" fill="#346CB4" points="353.287,86.63 406.199,259.824 405.932,259.905 352.995,86.63 				
					"/>
				<polygon clip-path="url(#SVGID_2_)" fill="#346CB5" points="353.579,86.63 406.466,259.742 406.199,259.824 353.287,86.63 				
					"/>
				<polygon clip-path="url(#SVGID_2_)" fill="#356DB5" points="353.871,86.63 406.733,259.661 406.466,259.742 353.579,86.63 				
					"/>
				<polygon clip-path="url(#SVGID_2_)" fill="#356DB6" points="354.162,86.63 407,259.579 406.733,259.661 353.871,86.63 				"/>
				<polygon clip-path="url(#SVGID_2_)" fill="#356EB6" points="354.454,86.63 407.267,259.498 407,259.579 354.162,86.63 				"/>
				<polygon clip-path="url(#SVGID_2_)" fill="#366EB6" points="354.746,86.63 407.534,259.416 407.267,259.498 354.454,86.63 				
					"/>
				<polygon clip-path="url(#SVGID_2_)" fill="#366FB7" points="355.038,86.63 407.801,259.335 407.534,259.416 354.746,86.63 				
					"/>
				<polygon clip-path="url(#SVGID_2_)" fill="#366FB7" points="355.33,86.63 408.068,259.253 407.801,259.335 355.038,86.63 				
					"/>
				<polygon clip-path="url(#SVGID_2_)" fill="#3770B7" points="355.622,86.63 408.335,259.171 408.068,259.253 355.33,86.63 				
					"/>
				<polygon clip-path="url(#SVGID_2_)" fill="#3771B8" points="355.913,86.63 408.601,259.09 408.335,259.171 355.622,86.63 				
					"/>
				<polygon clip-path="url(#SVGID_2_)" fill="#3771B8" points="356.205,86.63 408.868,259.008 408.601,259.09 355.913,86.63 				
					"/>
				<polygon clip-path="url(#SVGID_2_)" fill="#3872B8" points="356.497,86.63 409.135,258.927 408.868,259.008 356.205,86.63 				
					"/>
				<polygon clip-path="url(#SVGID_2_)" fill="#3872B9" points="356.789,86.63 409.402,258.845 409.135,258.927 356.497,86.63 				
					"/>
				<polygon clip-path="url(#SVGID_2_)" fill="#3873B9" points="357.081,86.63 409.669,258.764 409.402,258.845 356.789,86.63 				
					"/>
				<polygon clip-path="url(#SVGID_2_)" fill="#3973BA" points="357.373,86.63 409.936,258.682 409.669,258.764 357.081,86.63 				
					"/>
				<polygon clip-path="url(#SVGID_2_)" fill="#3974BA" points="357.664,86.63 410.203,258.601 409.936,258.682 357.373,86.63 				
					"/>
				<polygon clip-path="url(#SVGID_2_)" fill="#3974BA" points="357.956,86.63 410.47,258.519 410.203,258.601 357.664,86.63 				
					"/>
				<polygon clip-path="url(#SVGID_2_)" fill="#3A75BB" points="358.248,86.63 410.737,258.438 410.47,258.519 357.956,86.63 				
					"/>
				<polygon clip-path="url(#SVGID_2_)" fill="#3A75BB" points="358.54,86.63 411.004,258.356 410.737,258.438 358.248,86.63 				
					"/>
				<polygon clip-path="url(#SVGID_2_)" fill="#3A76BB" points="358.832,86.63 411.271,258.274 411.004,258.356 358.54,86.63 				
					"/>
				<polygon clip-path="url(#SVGID_2_)" fill="#3B77BC" points="359.124,86.63 411.538,258.193 411.271,258.274 358.832,86.63 				
					"/>
				<polygon clip-path="url(#SVGID_2_)" fill="#3B77BC" points="359.415,86.63 411.805,258.111 411.538,258.193 359.124,86.63 				
					"/>
				<polygon clip-path="url(#SVGID_2_)" fill="#3B78BD" points="359.707,86.63 412.071,258.03 411.805,258.111 359.415,86.63 				
					"/>
				<polygon clip-path="url(#SVGID_2_)" fill="#3C78BD" points="359.999,86.63 412.338,257.948 412.071,258.03 359.707,86.63 				
					"/>
				<polygon clip-path="url(#SVGID_2_)" fill="#3C79BD" points="360.291,86.63 412.605,257.867 412.338,257.948 359.999,86.63 				
					"/>
				<polygon clip-path="url(#SVGID_2_)" fill="#3C79BE" points="360.583,86.63 412.872,257.785 412.605,257.867 360.291,86.63 				
					"/>
				<polygon clip-path="url(#SVGID_2_)" fill="#3D7ABE" points="360.875,86.63 413.139,257.704 412.872,257.785 360.583,86.63 				
					"/>
				<polygon clip-path="url(#SVGID_2_)" fill="#3D7BBE" points="361.167,86.63 413.406,257.622 413.139,257.704 360.875,86.63 				
					"/>
				<polygon clip-path="url(#SVGID_2_)" fill="#3D7BBF" points="361.458,86.63 413.673,257.54 413.406,257.622 361.167,86.63 				
					"/>
				<polygon clip-path="url(#SVGID_2_)" fill="#3E7CBF" points="361.75,86.63 413.94,257.459 413.673,257.54 361.458,86.63 				"/>
				<polygon clip-path="url(#SVGID_2_)" fill="#3E7CC0" points="362.042,86.63 414.207,257.377 413.94,257.459 361.75,86.63 				"/>
				<polygon clip-path="url(#SVGID_2_)" fill="#3E7DC0" points="362.334,86.63 414.474,257.296 414.207,257.377 362.042,86.63 				
					"/>
				<polygon clip-path="url(#SVGID_2_)" fill="#3F7DC0" points="362.626,86.63 414.741,257.214 414.474,257.296 362.334,86.63 				
					"/>
				<polygon clip-path="url(#SVGID_2_)" fill="#3F7EC1" points="362.918,86.63 415.008,257.133 414.741,257.214 362.626,86.63 				
					"/>
				<polygon clip-path="url(#SVGID_2_)" fill="#3F7FC1" points="363.209,86.63 415.274,257.051 415.008,257.133 362.918,86.63 				
					"/>
				<polygon clip-path="url(#SVGID_2_)" fill="#407FC2" points="363.501,86.63 415.541,256.97 415.274,257.051 363.209,86.63 				
					"/>
				<polygon clip-path="url(#SVGID_2_)" fill="#4080C2" points="363.793,86.63 415.808,256.888 415.541,256.97 363.501,86.63 				
					"/>
				<polygon clip-path="url(#SVGID_2_)" fill="#4080C2" points="364.085,86.63 416.075,256.807 415.808,256.888 363.793,86.63 				
					"/>
				<polygon clip-path="url(#SVGID_2_)" fill="#4081C3" points="364.377,86.63 416.342,256.725 416.075,256.807 364.085,86.63 				
					"/>
				<polygon clip-path="url(#SVGID_2_)" fill="#4182C3" points="364.669,86.63 416.609,256.643 416.342,256.725 364.377,86.63 				
					"/>
				<polygon clip-path="url(#SVGID_2_)" fill="#4182C4" points="364.96,86.63 416.876,256.562 416.609,256.643 364.669,86.63 				
					"/>
				<polygon clip-path="url(#SVGID_2_)" fill="#4183C4" points="365.252,86.63 417.143,256.48 416.876,256.562 364.96,86.63 				"/>
				<polygon clip-path="url(#SVGID_2_)" fill="#4283C5" points="365.544,86.63 417.41,256.399 417.143,256.48 365.252,86.63 				"/>
				<polygon clip-path="url(#SVGID_2_)" fill="#4284C5" points="365.836,86.63 417.677,256.317 417.41,256.399 365.544,86.63 				
					"/>
				<polygon clip-path="url(#SVGID_2_)" fill="#4285C5" points="366.128,86.63 417.944,256.236 417.677,256.317 365.836,86.63 				
					"/>
				<polygon clip-path="url(#SVGID_2_)" fill="#4385C6" points="366.42,86.63 418.211,256.154 417.944,256.236 366.128,86.63 				
					"/>
				<polygon clip-path="url(#SVGID_2_)" fill="#4386C6" points="366.711,86.63 418.478,256.073 418.211,256.154 366.42,86.63 				
					"/>
				<polygon clip-path="url(#SVGID_2_)" fill="#4386C7" points="367.003,86.63 418.744,255.991 418.478,256.073 366.711,86.63 				
					"/>
				<polygon clip-path="url(#SVGID_2_)" fill="#4487C7" points="367.295,86.63 419.011,255.91 418.744,255.991 367.003,86.63 				
					"/>
				<polygon clip-path="url(#SVGID_2_)" fill="#4488C7" points="367.587,86.63 419.278,255.828 419.011,255.91 367.295,86.63 				
					"/>
				<polygon clip-path="url(#SVGID_2_)" fill="#4488C8" points="367.879,86.63 419.545,255.746 419.278,255.828 367.587,86.63 				
					"/>
				<polygon clip-path="url(#SVGID_2_)" fill="#4589C8" points="368.171,86.63 419.812,255.665 419.545,255.746 367.879,86.63 				
					"/>
				<polygon clip-path="url(#SVGID_2_)" fill="#4589C9" points="368.462,86.63 420.079,255.583 419.812,255.665 368.171,86.63 				
					"/>
				<polygon clip-path="url(#SVGID_2_)" fill="#458AC9" points="368.754,86.63 420.346,255.502 420.079,255.583 368.462,86.63 				
					"/>
				<polygon clip-path="url(#SVGID_2_)" fill="#458BC9" points="369.046,86.63 420.613,255.42 420.346,255.502 368.754,86.63 				
					"/>
				<polygon clip-path="url(#SVGID_2_)" fill="#468BCA" points="369.338,86.63 420.88,255.339 420.613,255.42 369.046,86.63 				"/>
				<polygon clip-path="url(#SVGID_2_)" fill="#468CCA" points="369.63,86.63 421.147,255.257 420.88,255.339 369.338,86.63 				"/>
				<polygon clip-path="url(#SVGID_2_)" fill="#468DCB" points="369.922,86.63 421.414,255.176 421.147,255.257 369.63,86.63 				
					"/>
				<polygon clip-path="url(#SVGID_2_)" fill="#478DCB" points="370.213,86.63 421.681,255.094 421.414,255.176 369.922,86.63 				
					"/>
				<polygon clip-path="url(#SVGID_2_)" fill="#478ECC" points="370.505,86.63 421.947,255.013 421.681,255.094 370.213,86.63 				
					"/>
				<polygon clip-path="url(#SVGID_2_)" fill="#478ECC" points="370.797,86.63 422.214,254.931 421.947,255.013 370.505,86.63 				
					"/>
				<polygon clip-path="url(#SVGID_2_)" fill="#488FCD" points="371.089,86.63 422.481,254.849 422.214,254.931 370.797,86.63 				
					"/>
				<polygon clip-path="url(#SVGID_2_)" fill="#4890CD" points="371.381,86.63 422.748,254.768 422.481,254.849 371.089,86.63 				
					"/>
				<polygon clip-path="url(#SVGID_2_)" fill="#4890CD" points="371.673,86.63 423.015,254.686 422.748,254.768 371.381,86.63 				
					"/>
				<polygon clip-path="url(#SVGID_2_)" fill="#4991CE" points="371.964,86.63 423.282,254.605 423.015,254.686 371.673,86.63 				
					"/>
				<polygon clip-path="url(#SVGID_2_)" fill="#4992CE" points="372.256,86.63 423.549,254.523 423.282,254.605 371.964,86.63 				
					"/>
				<polygon clip-path="url(#SVGID_2_)" fill="#4992CF" points="372.548,86.63 423.816,254.442 423.549,254.523 372.256,86.63 				
					"/>
				<polygon clip-path="url(#SVGID_2_)" fill="#4A93CF" points="372.84,86.63 424.083,254.36 423.816,254.442 372.548,86.63 				"/>
				<polygon clip-path="url(#SVGID_2_)" fill="#4A94D0" points="373.132,86.63 424.35,254.279 424.083,254.36 372.84,86.63 				"/>
				<polygon clip-path="url(#SVGID_2_)" fill="#4A94D0" points="373.424,86.63 424.617,254.197 424.35,254.279 373.132,86.63 				
					"/>
				<polygon clip-path="url(#SVGID_2_)" fill="#4B95D1" points="373.715,86.63 424.884,254.116 424.617,254.197 373.424,86.63 				
					"/>
				<polygon clip-path="url(#SVGID_2_)" fill="#4B96D1" points="374.007,86.63 425.151,254.034 424.884,254.116 373.715,86.63 				
					"/>
				<polygon clip-path="url(#SVGID_2_)" fill="#4B96D1" points="374.299,86.63 425.417,253.952 425.151,254.034 374.007,86.63 				
					"/>
				<polygon clip-path="url(#SVGID_2_)" fill="#4B97D2" points="374.591,86.63 425.684,253.871 425.417,253.952 374.299,86.63 				
					"/>
				<polygon clip-path="url(#SVGID_2_)" fill="#4C98D2" points="374.883,86.63 425.951,253.789 425.684,253.871 374.591,86.63 				
					"/>
				<polygon clip-path="url(#SVGID_2_)" fill="#4C98D3" points="375.175,86.63 426.218,253.708 425.951,253.789 374.883,86.63 				
					"/>
				<polygon clip-path="url(#SVGID_2_)" fill="#4C99D3" points="375.466,86.63 426.485,253.626 426.218,253.708 375.175,86.63 				
					"/>
				<polygon clip-path="url(#SVGID_2_)" fill="#4D9AD4" points="375.758,86.63 426.752,253.545 426.485,253.626 375.466,86.63 				
					"/>
				<polygon clip-path="url(#SVGID_2_)" fill="#4D9AD4" points="376.05,86.63 427.019,253.463 426.752,253.545 375.758,86.63 				
					"/>
				<polygon clip-path="url(#SVGID_2_)" fill="#4D9BD5" points="376.342,86.63 427.286,253.382 427.019,253.463 376.05,86.63 				
					"/>
				<polygon clip-path="url(#SVGID_2_)" fill="#4E9CD5" points="376.634,86.63 427.553,253.3 427.286,253.382 376.342,86.63 				"/>
				<polygon clip-path="url(#SVGID_2_)" fill="#4E9CD5" points="376.926,86.63 427.82,253.219 427.553,253.3 376.634,86.63 				"/>
				<polygon clip-path="url(#SVGID_2_)" fill="#4E9DD6" points="377.217,86.63 428.087,253.137 427.82,253.219 376.926,86.63 				
					"/>
				<polygon clip-path="url(#SVGID_2_)" fill="#4F9ED6" points="377.509,86.63 428.354,253.055 428.087,253.137 377.217,86.63 				
					"/>
				<polygon clip-path="url(#SVGID_2_)" fill="#4F9ED7" points="377.801,86.63 428.621,252.974 428.354,253.055 377.509,86.63 				
					"/>
				<polygon clip-path="url(#SVGID_2_)" fill="#4F9FD7" points="378.093,86.63 428.887,252.892 428.621,252.974 377.801,86.63 				
					"/>
				<polygon clip-path="url(#SVGID_2_)" fill="#50A0D8" points="378.385,86.63 429.154,252.811 428.887,252.892 378.093,86.63 				
					"/>
				<polygon clip-path="url(#SVGID_2_)" fill="#50A0D8" points="378.677,86.63 429.421,252.729 429.154,252.811 378.385,86.63 				
					"/>
				<polygon clip-path="url(#SVGID_2_)" fill="#50A1D9" points="378.968,86.63 429.688,252.648 429.421,252.729 378.677,86.63 				
					"/>
				<polygon clip-path="url(#SVGID_2_)" fill="#51A2D9" points="379.26,86.63 429.955,252.566 429.688,252.648 378.968,86.63 				
					"/>
				<polygon clip-path="url(#SVGID_2_)" fill="#51A2DA" points="379.552,86.63 430.222,252.485 429.955,252.566 379.26,86.63 				
					"/>
				<polygon clip-path="url(#SVGID_2_)" fill="#51A3DA" points="379.844,86.63 430.489,252.403 430.222,252.485 379.552,86.63 				
					"/>
				<polygon clip-path="url(#SVGID_2_)" fill="#52A4DA" points="380.136,86.63 430.756,252.322 430.489,252.403 379.844,86.63 				
					"/>
				<polygon clip-path="url(#SVGID_2_)" fill="#52A4DB" points="380.428,86.63 431.023,252.24 430.756,252.322 380.136,86.63 				
					"/>
				<polygon clip-path="url(#SVGID_2_)" fill="#52A5DB" points="380.719,86.63 431.29,252.158 431.023,252.24 380.428,86.63 				"/>
				<polygon clip-path="url(#SVGID_2_)" fill="#53A6DC" points="381.011,86.63 431.557,252.077 431.29,252.158 380.719,86.63 				
					"/>
				<polygon clip-path="url(#SVGID_2_)" fill="#53A6DC" points="381.303,86.63 431.824,251.995 431.557,252.077 381.011,86.63 				
					"/>
				<polygon clip-path="url(#SVGID_2_)" fill="#53A7DD" points="381.595,86.63 432.09,251.914 431.824,251.995 381.303,86.63 				
					"/>
				<polygon clip-path="url(#SVGID_2_)" fill="#54A8DD" points="381.887,86.63 432.357,251.832 432.09,251.914 381.595,86.63 				
					"/>
				<polygon clip-path="url(#SVGID_2_)" fill="#54A8DE" points="382.179,86.63 432.624,251.751 432.357,251.832 381.887,86.63 				
					"/>
				<polygon clip-path="url(#SVGID_2_)" fill="#55A9DE" points="382.47,86.63 432.891,251.669 432.624,251.751 382.179,86.63 				
					"/>
				<polygon clip-path="url(#SVGID_2_)" fill="#55AADE" points="382.762,86.63 433.158,251.588 432.891,251.669 382.47,86.63 				
					"/>
				<polygon clip-path="url(#SVGID_2_)" fill="#55ABDF" points="383.054,86.63 433.425,251.506 433.158,251.588 382.762,86.63 				
					"/>
				<polygon clip-path="url(#SVGID_2_)" fill="#56ABDF" points="383.346,86.63 433.692,251.424 433.425,251.506 383.054,86.63 				
					"/>
				<polygon clip-path="url(#SVGID_2_)" fill="#56ACE0" points="383.638,86.63 433.959,251.343 433.692,251.424 383.346,86.63 				
					"/>
				<polygon clip-path="url(#SVGID_2_)" fill="#56ADE0" points="383.93,86.63 434.226,251.261 433.959,251.343 383.638,86.63 				
					"/>
				<polygon clip-path="url(#SVGID_2_)" fill="#57ADE1" points="384.221,86.63 434.493,251.18 434.226,251.261 383.93,86.63 				"/>
				<polygon clip-path="url(#SVGID_2_)" fill="#57AEE1" points="384.513,86.63 434.76,251.098 434.493,251.18 384.221,86.63 				"/>
				<polygon clip-path="url(#SVGID_2_)" fill="#57AFE2" points="384.805,86.63 435.027,251.017 434.76,251.098 384.513,86.63 				
					"/>
				<polygon clip-path="url(#SVGID_2_)" fill="#58AFE2" points="385.097,86.63 435.294,250.935 435.027,251.017 384.805,86.63 				
					"/>
				<polygon clip-path="url(#SVGID_2_)" fill="#58B0E3" points="385.389,86.63 435.56,250.854 435.294,250.935 385.097,86.63 				
					"/>
				<polygon clip-path="url(#SVGID_2_)" fill="#59B1E3" points="385.681,86.63 435.827,250.772 435.56,250.854 385.389,86.63 				
					"/>
				<polygon clip-path="url(#SVGID_2_)" fill="#59B1E3" points="385.972,86.63 436.094,250.691 435.827,250.772 385.681,86.63 				
					"/>
				<polygon clip-path="url(#SVGID_2_)" fill="#59B2E4" points="386.264,86.63 436.361,250.609 436.094,250.691 385.972,86.63 				
					"/>
				<polygon clip-path="url(#SVGID_2_)" fill="#5AB3E4" points="386.556,86.63 436.628,250.527 436.361,250.609 386.264,86.63 				
					"/>
				<polygon clip-path="url(#SVGID_2_)" fill="#5AB3E5" points="386.848,86.63 436.895,250.446 436.628,250.527 386.556,86.63 				
					"/>
				<polygon clip-path="url(#SVGID_2_)" fill="#5AB4E5" points="387.14,86.63 437.162,250.364 436.895,250.446 386.848,86.63 				
					"/>
				<polygon clip-path="url(#SVGID_2_)" fill="#5BB5E6" points="387.432,86.63 437.429,250.283 437.162,250.364 387.14,86.63 				
					"/>
				<polygon clip-path="url(#SVGID_2_)" fill="#5BB6E6" points="387.723,86.63 437.696,250.201 437.429,250.283 387.432,86.63 				
					"/>
				<polygon clip-path="url(#SVGID_2_)" fill="#5BB6E7" points="388.015,86.63 437.963,250.12 437.696,250.201 387.723,86.63 				
					"/>
				<polygon clip-path="url(#SVGID_2_)" fill="#5CB7E7" points="388.307,86.63 438.23,250.038 437.963,250.12 388.015,86.63 				"/>
				<polygon clip-path="url(#SVGID_2_)" fill="#5CB8E8" points="388.599,86.63 438.497,249.957 438.23,250.038 388.307,86.63 				
					"/>
				<polygon clip-path="url(#SVGID_2_)" fill="#5DB8E8" points="388.891,86.63 438.763,249.875 438.497,249.957 388.599,86.63 				
					"/>
				<polygon clip-path="url(#SVGID_2_)" fill="#5DB9E9" points="389.183,86.63 439.03,249.794 438.763,249.875 388.891,86.63 				
					"/>
				<polygon clip-path="url(#SVGID_2_)" fill="#5DBAE9" points="389.474,86.63 439.297,249.712 439.03,249.794 389.183,86.63 				
					"/>
				<polygon clip-path="url(#SVGID_2_)" fill="#5EBBE9" points="389.766,86.63 439.564,249.63 439.297,249.712 389.474,86.63 				
					"/>
				<polygon clip-path="url(#SVGID_2_)" fill="#5EBBEA" points="390.058,86.63 439.831,249.549 439.564,249.63 389.766,86.63 				
					"/>
				<polygon clip-path="url(#SVGID_2_)" fill="#5FBCEA" points="390.35,86.63 440.098,249.467 439.831,249.549 390.058,86.63 				
					"/>
				<polygon clip-path="url(#SVGID_2_)" fill="#5FBDEB" points="390.642,86.63 440.365,249.386 440.098,249.467 390.35,86.63 				
					"/>
				<polygon clip-path="url(#SVGID_2_)" fill="#60BEEB" points="390.934,86.63 440.632,249.304 440.365,249.386 390.642,86.63 				
					"/>
				<polygon clip-path="url(#SVGID_2_)" fill="#60BEEC" points="391.225,86.63 440.899,249.223 440.632,249.304 390.934,86.63 				
					"/>
				<polygon clip-path="url(#SVGID_2_)" fill="#60BFEC" points="391.517,86.63 441.166,249.141 440.899,249.223 391.225,86.63 				
					"/>
				<polygon clip-path="url(#SVGID_2_)" fill="#61C0ED" points="391.809,86.63 441.433,249.06 441.166,249.141 391.517,86.63 				
					"/>
				<polygon clip-path="url(#SVGID_2_)" fill="#61C0ED" points="392.101,86.63 441.7,248.978 441.433,249.06 391.809,86.63 				"/>
				<polygon clip-path="url(#SVGID_2_)" fill="#62C1EE" points="392.393,86.63 441.967,248.897 441.7,248.978 392.101,86.63 				"/>
				<polygon clip-path="url(#SVGID_2_)" fill="#62C2EE" points="392.685,86.63 442.233,248.815 441.967,248.897 392.393,86.63 				
					"/>
				<polygon clip-path="url(#SVGID_2_)" fill="#62C3EF" points="392.976,86.63 442.5,248.733 442.233,248.815 392.685,86.63 				"/>
				<polygon clip-path="url(#SVGID_2_)" fill="#63C3EF" points="393.268,86.63 442.767,248.652 442.5,248.733 392.976,86.63 				"/>
				<polygon clip-path="url(#SVGID_2_)" fill="#63C4F0" points="393.56,86.63 443.034,248.57 442.767,248.652 393.268,86.63 				"/>
				<polygon clip-path="url(#SVGID_2_)" fill="#64C5F0" points="393.852,86.63 443.301,248.489 443.034,248.57 393.56,86.63 				"/>
				<polygon clip-path="url(#SVGID_2_)" fill="#64C6F1" points="394.144,86.63 443.568,248.407 443.301,248.489 393.852,86.63 				
					"/>
				<polygon clip-path="url(#SVGID_2_)" fill="#64C7F1" points="394.436,86.63 443.835,248.326 443.568,248.407 394.144,86.63 				
					"/>
				<polygon clip-path="url(#SVGID_2_)" fill="#65C7F2" points="394.727,86.63 444.102,248.244 443.835,248.326 394.436,86.63 				
					"/>
				<polygon clip-path="url(#SVGID_2_)" fill="#65C8F2" points="395.019,86.63 444.369,248.163 444.102,248.244 394.727,86.63 				
					"/>
				<polygon clip-path="url(#SVGID_2_)" fill="#65C9F3" points="395.311,86.63 444.636,248.081 444.369,248.163 395.019,86.63 				
					"/>
				<polygon clip-path="url(#SVGID_2_)" fill="#66CAF3" points="395.603,86.63 444.903,248 444.636,248.081 395.311,86.63 				"/>
				<polygon clip-path="url(#SVGID_2_)" fill="#66CBF4" points="395.895,86.63 445.17,247.918 444.903,248 395.603,86.63 				"/>
				<polygon clip-path="url(#SVGID_2_)" fill="#66CCF5" points="396.187,86.63 445.437,247.836 445.17,247.918 395.895,86.63 				
					"/>
				<polygon clip-path="url(#SVGID_2_)" fill="#66CEF6" points="396.478,86.63 445.703,247.755 445.437,247.836 396.187,86.63 				
					"/>
				<polygon clip-path="url(#SVGID_2_)" fill="#66CEF6" points="450.963,246.148 445.703,247.755 396.478,86.63 450.963,86.63 				
					"/>
				<polygon clip-path="url(#SVGID_2_)" fill="#20419A" points="57.968,115.044 180.657,77.561 327.461,77.561 387.794,275.043 
					337.342,290.457 57.968,290.457 				"/>
				<polygon clip-path="url(#SVGID_2_)" fill="#20419A" points="327.753,77.561 388.061,274.962 387.794,275.043 327.461,77.561 
									"/>
				<polygon clip-path="url(#SVGID_2_)" fill="#20429B" points="328.045,77.561 388.328,274.88 388.061,274.962 327.753,77.561 				
					"/>
				<polygon clip-path="url(#SVGID_2_)" fill="#20429B" points="328.337,77.561 388.595,274.798 388.328,274.88 328.045,77.561 				
					"/>
				<polygon clip-path="url(#SVGID_2_)" fill="#20439B" points="328.629,77.561 388.862,274.717 388.595,274.798 328.337,77.561 
									"/>
				<polygon clip-path="url(#SVGID_2_)" fill="#20439C" points="328.921,77.561 389.129,274.635 388.862,274.717 328.629,77.561 
									"/>
				<polygon clip-path="url(#SVGID_2_)" fill="#20449C" points="329.212,77.561 389.395,274.554 389.129,274.635 328.921,77.561 
									"/>
				<polygon clip-path="url(#SVGID_2_)" fill="#20459C" points="329.504,77.561 389.662,274.472 389.395,274.554 329.212,77.561 
									"/>
				<polygon clip-path="url(#SVGID_2_)" fill="#20459D" points="329.796,77.561 389.929,274.391 389.662,274.472 329.504,77.561 
									"/>
				<polygon clip-path="url(#SVGID_2_)" fill="#20469D" points="330.088,77.561 390.196,274.309 389.929,274.391 329.796,77.561 
									"/>
				<polygon clip-path="url(#SVGID_2_)" fill="#20469D" points="330.38,77.561 390.463,274.228 390.196,274.309 330.088,77.561 				
					"/>
				<polygon clip-path="url(#SVGID_2_)" fill="#21479E" points="330.672,77.561 390.73,274.146 390.463,274.228 330.38,77.561 				
					"/>
				<polygon clip-path="url(#SVGID_2_)" fill="#21479E" points="330.963,77.561 390.997,274.065 390.73,274.146 330.672,77.561 				
					"/>
				<polygon clip-path="url(#SVGID_2_)" fill="#21489E" points="331.255,77.561 391.264,273.983 390.997,274.065 330.963,77.561 
									"/>
				<polygon clip-path="url(#SVGID_2_)" fill="#21499F" points="331.547,77.561 391.531,273.901 391.264,273.983 331.255,77.561 
									"/>
				<polygon clip-path="url(#SVGID_2_)" fill="#21499F" points="331.839,77.561 391.798,273.82 391.531,273.901 331.547,77.561 				
					"/>
				<polygon clip-path="url(#SVGID_2_)" fill="#224A9F" points="332.131,77.561 392.065,273.738 391.798,273.82 331.839,77.561 				
					"/>
				<polygon clip-path="url(#SVGID_2_)" fill="#224AA0" points="332.423,77.561 392.332,273.657 392.065,273.738 332.131,77.561 
									"/>
				<polygon clip-path="url(#SVGID_2_)" fill="#224BA0" points="332.714,77.561 392.598,273.575 392.332,273.657 332.423,77.561 
									"/>
				<polygon clip-path="url(#SVGID_2_)" fill="#224BA0" points="333.006,77.561 392.865,273.494 392.598,273.575 332.714,77.561 
									"/>
				<polygon clip-path="url(#SVGID_2_)" fill="#234CA1" points="333.298,77.561 393.132,273.412 392.865,273.494 333.006,77.561 
									"/>
				<polygon clip-path="url(#SVGID_2_)" fill="#234DA1" points="333.59,77.561 393.399,273.331 393.132,273.412 333.298,77.561 				
					"/>
				<polygon clip-path="url(#SVGID_2_)" fill="#234DA1" points="333.882,77.561 393.666,273.249 393.399,273.331 333.59,77.561 				
					"/>
				<polygon clip-path="url(#SVGID_2_)" fill="#234EA1" points="334.174,77.561 393.933,273.168 393.666,273.249 333.882,77.561 
									"/>
				<polygon clip-path="url(#SVGID_2_)" fill="#244EA2" points="334.465,77.561 394.2,273.086 393.933,273.168 334.174,77.561 				
					"/>
				<polygon clip-path="url(#SVGID_2_)" fill="#244FA2" points="334.757,77.561 394.467,273.004 394.2,273.086 334.465,77.561 				
					"/>
				<polygon clip-path="url(#SVGID_2_)" fill="#244FA2" points="335.049,77.561 394.734,272.923 394.467,273.004 334.757,77.561 
									"/>
				<polygon clip-path="url(#SVGID_2_)" fill="#2550A3" points="335.341,77.561 395.001,272.841 394.734,272.923 335.049,77.561 
									"/>
				<polygon clip-path="url(#SVGID_2_)" fill="#2550A3" points="335.633,77.561 395.268,272.76 395.001,272.841 335.341,77.561 				
					"/>
				<polygon clip-path="url(#SVGID_2_)" fill="#2551A3" points="335.925,77.561 395.535,272.678 395.268,272.76 335.633,77.561 				
					"/>
				<polygon clip-path="url(#SVGID_2_)" fill="#2551A4" points="336.216,77.561 395.802,272.597 395.535,272.678 335.925,77.561 
									"/>
				<polygon clip-path="url(#SVGID_2_)" fill="#2652A4" points="336.508,77.561 396.068,272.515 395.802,272.597 336.216,77.561 
									"/>
				<polygon clip-path="url(#SVGID_2_)" fill="#2653A4" points="336.8,77.561 396.335,272.434 396.068,272.515 336.508,77.561 				
					"/>
				<polygon clip-path="url(#SVGID_2_)" fill="#2653A5" points="337.092,77.561 396.602,272.352 396.335,272.434 336.8,77.561 				
					"/>
				<polygon clip-path="url(#SVGID_2_)" fill="#2654A5" points="337.384,77.561 396.869,272.271 396.602,272.352 337.092,77.561 
									"/>
				<polygon clip-path="url(#SVGID_2_)" fill="#2754A5" points="337.676,77.561 397.136,272.189 396.869,272.271 337.384,77.561 
									"/>
				<polygon clip-path="url(#SVGID_2_)" fill="#2755A6" points="337.967,77.561 397.403,272.107 397.136,272.189 337.676,77.561 
									"/>
				<polygon clip-path="url(#SVGID_2_)" fill="#2755A6" points="338.259,77.561 397.67,272.026 397.403,272.107 337.967,77.561 				
					"/>
				<polygon clip-path="url(#SVGID_2_)" fill="#2856A6" points="338.551,77.561 397.937,271.944 397.67,272.026 338.259,77.561 				
					"/>
				<polygon clip-path="url(#SVGID_2_)" fill="#2856A7" points="338.843,77.561 398.204,271.863 397.937,271.944 338.551,77.561 
									"/>
				<polygon clip-path="url(#SVGID_2_)" fill="#2857A7" points="339.135,77.561 398.471,271.781 398.204,271.863 338.843,77.561 
									"/>
				<polygon clip-path="url(#SVGID_2_)" fill="#2958A7" points="339.427,77.561 398.738,271.7 398.471,271.781 339.135,77.561 				
					"/>
				<polygon clip-path="url(#SVGID_2_)" fill="#2958A8" points="339.718,77.561 399.005,271.618 398.738,271.7 339.427,77.561 				
					"/>
				<polygon clip-path="url(#SVGID_2_)" fill="#2959A8" points="340.01,77.561 399.271,271.537 399.005,271.618 339.718,77.561 				
					"/>
				<polygon clip-path="url(#SVGID_2_)" fill="#2959A8" points="340.302,77.561 399.538,271.455 399.271,271.537 340.01,77.561 				
					"/>
				<polygon clip-path="url(#SVGID_2_)" fill="#2A5AA9" points="340.594,77.561 399.805,271.373 399.538,271.455 340.302,77.561 
									"/>
				<polygon clip-path="url(#SVGID_2_)" fill="#2A5AA9" points="340.886,77.561 400.072,271.292 399.805,271.373 340.594,77.561 
									"/>
				<polygon clip-path="url(#SVGID_2_)" fill="#2A5BAA" points="341.178,77.561 400.339,271.21 400.072,271.292 340.886,77.561 				
					"/>
				<polygon clip-path="url(#SVGID_2_)" fill="#2A5BAA" points="341.469,77.561 400.606,271.129 400.339,271.21 341.178,77.561 				
					"/>
				<polygon clip-path="url(#SVGID_2_)" fill="#2B5CAA" points="341.761,77.561 400.873,271.047 400.606,271.129 341.469,77.561 
									"/>
				<polygon clip-path="url(#SVGID_2_)" fill="#2B5CAB" points="342.053,77.561 401.14,270.966 400.873,271.047 341.761,77.561 				
					"/>
				<polygon clip-path="url(#SVGID_2_)" fill="#2B5DAB" points="342.345,77.561 401.407,270.884 401.14,270.966 342.053,77.561 				
					"/>
				<polygon clip-path="url(#SVGID_2_)" fill="#2C5DAB" points="342.637,77.561 401.674,270.803 401.407,270.884 342.345,77.561 
									"/>
				<polygon clip-path="url(#SVGID_2_)" fill="#2C5EAC" points="342.929,77.561 401.941,270.721 401.674,270.803 342.637,77.561 
									"/>
				<polygon clip-path="url(#SVGID_2_)" fill="#2C5EAC" points="343.22,77.561 402.208,270.64 401.941,270.721 342.929,77.561 				
					"/>
				<polygon clip-path="url(#SVGID_2_)" fill="#2C5FAC" points="343.512,77.561 402.475,270.558 402.208,270.64 343.22,77.561 				
					"/>
				<polygon clip-path="url(#SVGID_2_)" fill="#2D60AD" points="343.804,77.561 402.741,270.476 402.475,270.558 343.512,77.561 
									"/>
				<polygon clip-path="url(#SVGID_2_)" fill="#2D60AD" points="344.096,77.561 403.008,270.395 402.741,270.476 343.804,77.561 
									"/>
				<polygon clip-path="url(#SVGID_2_)" fill="#2D61AD" points="344.388,77.561 403.275,270.313 403.008,270.395 344.096,77.561 
									"/>
				<polygon clip-path="url(#SVGID_2_)" fill="#2E61AE" points="344.68,77.561 403.542,270.232 403.275,270.313 344.388,77.561 				
					"/>
				<polygon clip-path="url(#SVGID_2_)" fill="#2E62AE" points="344.971,77.561 403.809,270.15 403.542,270.232 344.68,77.561 				
					"/>
				<polygon clip-path="url(#SVGID_2_)" fill="#2E62AE" points="345.263,77.561 404.076,270.069 403.809,270.15 344.971,77.561 				
					"/>
				<polygon clip-path="url(#SVGID_2_)" fill="#2E63AF" points="345.555,77.561 404.343,269.987 404.076,270.069 345.263,77.561 
									"/>
				<polygon clip-path="url(#SVGID_2_)" fill="#2F63AF" points="345.847,77.561 404.61,269.906 404.343,269.987 345.555,77.561 				
					"/>
				<polygon clip-path="url(#SVGID_2_)" fill="#2F64AF" points="346.139,77.561 404.877,269.824 404.61,269.906 345.847,77.561 				
					"/>
				<polygon clip-path="url(#SVGID_2_)" fill="#2F64B0" points="346.431,77.561 405.144,269.743 404.877,269.824 346.139,77.561 
									"/>
				<polygon clip-path="url(#SVGID_2_)" fill="#3065B0" points="346.722,77.561 405.411,269.661 405.144,269.743 346.431,77.561 
									"/>
				<polygon clip-path="url(#SVGID_2_)" fill="#3065B0" points="347.014,77.561 405.678,269.579 405.411,269.661 346.722,77.561 
									"/>
				<polygon clip-path="url(#SVGID_2_)" fill="#3066B1" points="347.306,77.561 405.945,269.498 405.678,269.579 347.014,77.561 
									"/>
				<polygon clip-path="url(#SVGID_2_)" fill="#3166B1" points="347.598,77.561 406.211,269.416 405.945,269.498 347.306,77.561 
									"/>
				<polygon clip-path="url(#SVGID_2_)" fill="#3167B1" points="347.89,77.561 406.478,269.335 406.211,269.416 347.598,77.561 				
					"/>
				<polygon clip-path="url(#SVGID_2_)" fill="#3167B2" points="348.182,77.561 406.745,269.253 406.478,269.335 347.89,77.561 				
					"/>
				<polygon clip-path="url(#SVGID_2_)" fill="#3268B2" points="348.473,77.561 407.012,269.172 406.745,269.253 348.182,77.561 
									"/>
				<polygon clip-path="url(#SVGID_2_)" fill="#3268B2" points="348.765,77.561 407.279,269.09 407.012,269.172 348.473,77.561 				
					"/>
				<polygon clip-path="url(#SVGID_2_)" fill="#3269B3" points="349.057,77.561 407.546,269.009 407.279,269.09 348.765,77.561 				
					"/>
				<polygon clip-path="url(#SVGID_2_)" fill="#3369B3" points="349.349,77.561 407.813,268.927 407.546,269.009 349.057,77.561 
									"/>
				<polygon clip-path="url(#SVGID_2_)" fill="#336AB3" points="349.641,77.561 408.08,268.846 407.813,268.927 349.349,77.561 				
					"/>
				<polygon clip-path="url(#SVGID_2_)" fill="#336BB4" points="349.933,77.561 408.347,268.764 408.08,268.846 349.641,77.561 				
					"/>
				<polygon clip-path="url(#SVGID_2_)" fill="#346BB4" points="350.224,77.561 408.614,268.682 408.347,268.764 349.933,77.561 
									"/>
				<polygon clip-path="url(#SVGID_2_)" fill="#346CB4" points="350.516,77.561 408.881,268.601 408.614,268.682 350.224,77.561 
									"/>
				<polygon clip-path="url(#SVGID_2_)" fill="#346CB5" points="350.808,77.561 409.148,268.519 408.881,268.601 350.516,77.561 
									"/>
				<polygon clip-path="url(#SVGID_2_)" fill="#356DB5" points="351.1,77.561 409.414,268.438 409.148,268.519 350.808,77.561 				
					"/>
				<polygon clip-path="url(#SVGID_2_)" fill="#356DB6" points="351.392,77.561 409.681,268.356 409.414,268.438 351.1,77.561 				
					"/>
				<polygon clip-path="url(#SVGID_2_)" fill="#356EB6" points="351.684,77.561 409.948,268.275 409.681,268.356 351.392,77.561 
									"/>
				<polygon clip-path="url(#SVGID_2_)" fill="#366EB6" points="351.975,77.561 410.215,268.193 409.948,268.275 351.684,77.561 
									"/>
				<polygon clip-path="url(#SVGID_2_)" fill="#366FB7" points="352.267,77.561 410.482,268.112 410.215,268.193 351.975,77.561 
									"/>
				<polygon clip-path="url(#SVGID_2_)" fill="#366FB7" points="352.559,77.561 410.749,268.03 410.482,268.112 352.267,77.561 				
					"/>
				<polygon clip-path="url(#SVGID_2_)" fill="#3770B7" points="352.851,77.561 411.016,267.949 410.749,268.03 352.559,77.561 				
					"/>
				<polygon clip-path="url(#SVGID_2_)" fill="#3771B8" points="353.143,77.561 411.283,267.867 411.016,267.949 352.851,77.561 
									"/>
				<polygon clip-path="url(#SVGID_2_)" fill="#3771B8" points="353.435,77.561 411.55,267.785 411.283,267.867 353.143,77.561 				
					"/>
				<polygon clip-path="url(#SVGID_2_)" fill="#3872B8" points="353.726,77.561 411.817,267.704 411.55,267.785 353.435,77.561 				
					"/>
				<polygon clip-path="url(#SVGID_2_)" fill="#3872B9" points="354.018,77.561 412.084,267.622 411.817,267.704 353.726,77.561 
									"/>
				<polygon clip-path="url(#SVGID_2_)" fill="#3873B9" points="354.31,77.561 412.351,267.541 412.084,267.622 354.018,77.561 				
					"/>
				<polygon clip-path="url(#SVGID_2_)" fill="#3973BA" points="354.602,77.561 412.618,267.459 412.351,267.541 354.31,77.561 				
					"/>
				<polygon clip-path="url(#SVGID_2_)" fill="#3974BA" points="354.894,77.561 412.884,267.378 412.618,267.459 354.602,77.561 
									"/>
				<polygon clip-path="url(#SVGID_2_)" fill="#3974BA" points="355.186,77.561 413.151,267.296 412.884,267.378 354.894,77.561 
									"/>
				<polygon clip-path="url(#SVGID_2_)" fill="#3A75BB" points="355.477,77.561 413.418,267.215 413.151,267.296 355.186,77.561 
									"/>
				<polygon clip-path="url(#SVGID_2_)" fill="#3A75BB" points="355.769,77.561 413.685,267.133 413.418,267.215 355.477,77.561 
									"/>
				<polygon clip-path="url(#SVGID_2_)" fill="#3A76BB" points="356.061,77.561 413.952,267.052 413.685,267.133 355.769,77.561 
									"/>
				<polygon clip-path="url(#SVGID_2_)" fill="#3B77BC" points="356.353,77.561 414.219,266.97 413.952,267.052 356.061,77.561 				
					"/>
				<polygon clip-path="url(#SVGID_2_)" fill="#3B77BC" points="356.645,77.561 414.486,266.888 414.219,266.97 356.353,77.561 				
					"/>
				<polygon clip-path="url(#SVGID_2_)" fill="#3B78BD" points="356.937,77.561 414.753,266.807 414.486,266.888 356.645,77.561 
									"/>
				<polygon clip-path="url(#SVGID_2_)" fill="#3C78BD" points="357.228,77.561 415.02,266.725 414.753,266.807 356.937,77.561 				
					"/>
				<polygon clip-path="url(#SVGID_2_)" fill="#3C79BD" points="357.52,77.561 415.287,266.644 415.02,266.725 357.228,77.561 				
					"/>
				<polygon clip-path="url(#SVGID_2_)" fill="#3C79BE" points="357.812,77.561 415.554,266.562 415.287,266.644 357.52,77.561 				
					"/>
				<polygon clip-path="url(#SVGID_2_)" fill="#3D7ABE" points="358.104,77.561 415.821,266.481 415.554,266.562 357.812,77.561 
									"/>
				<polygon clip-path="url(#SVGID_2_)" fill="#3D7BBE" points="358.396,77.561 416.087,266.399 415.821,266.481 358.104,77.561 
									"/>
				<polygon clip-path="url(#SVGID_2_)" fill="#3D7BBF" points="358.688,77.561 416.354,266.318 416.087,266.399 358.396,77.561 
									"/>
				<polygon clip-path="url(#SVGID_2_)" fill="#3E7CBF" points="358.979,77.561 416.621,266.236 416.354,266.318 358.688,77.561 
									"/>
				<polygon clip-path="url(#SVGID_2_)" fill="#3E7CC0" points="359.271,77.561 416.888,266.154 416.621,266.236 358.979,77.561 
									"/>
				<polygon clip-path="url(#SVGID_2_)" fill="#3E7DC0" points="359.563,77.561 417.155,266.073 416.888,266.154 359.271,77.561 
									"/>
				<polygon clip-path="url(#SVGID_2_)" fill="#3F7DC0" points="359.855,77.561 417.422,265.991 417.155,266.073 359.563,77.561 
									"/>
				<polygon clip-path="url(#SVGID_2_)" fill="#3F7EC1" points="360.147,77.561 417.689,265.91 417.422,265.991 359.855,77.561 				
					"/>
				<polygon clip-path="url(#SVGID_2_)" fill="#3F7FC1" points="360.439,77.561 417.956,265.828 417.689,265.91 360.147,77.561 				
					"/>
				<polygon clip-path="url(#SVGID_2_)" fill="#407FC2" points="360.73,77.561 418.223,265.747 417.956,265.828 360.439,77.561 				
					"/>
				<polygon clip-path="url(#SVGID_2_)" fill="#4080C2" points="361.022,77.561 418.49,265.665 418.223,265.747 360.73,77.561 				
					"/>
				<polygon clip-path="url(#SVGID_2_)" fill="#4080C2" points="361.314,77.561 418.757,265.584 418.49,265.665 361.022,77.561 				
					"/>
				<polygon clip-path="url(#SVGID_2_)" fill="#4081C3" points="361.606,77.561 419.024,265.502 418.757,265.584 361.314,77.561 
									"/>
				<polygon clip-path="url(#SVGID_2_)" fill="#4182C3" points="361.898,77.561 419.291,265.421 419.024,265.502 361.606,77.561 
									"/>
				<polygon clip-path="url(#SVGID_2_)" fill="#4182C4" points="362.19,77.561 419.557,265.339 419.291,265.421 361.898,77.561 				
					"/>
				<polygon clip-path="url(#SVGID_2_)" fill="#4183C4" points="362.481,77.561 419.824,265.257 419.557,265.339 362.19,77.561 				
					"/>
				<polygon clip-path="url(#SVGID_2_)" fill="#4283C5" points="362.773,77.561 420.091,265.176 419.824,265.257 362.481,77.561 
									"/>
				<polygon clip-path="url(#SVGID_2_)" fill="#4284C5" points="363.065,77.561 420.358,265.094 420.091,265.176 362.773,77.561 
									"/>
				<polygon clip-path="url(#SVGID_2_)" fill="#4285C5" points="363.357,77.561 420.625,265.013 420.358,265.094 363.065,77.561 
									"/>
				<polygon clip-path="url(#SVGID_2_)" fill="#4385C6" points="363.649,77.561 420.892,264.931 420.625,265.013 363.357,77.561 
									"/>
				<polygon clip-path="url(#SVGID_2_)" fill="#4386C6" points="363.941,77.561 421.159,264.85 420.892,264.931 363.649,77.561 				
					"/>
				<polygon clip-path="url(#SVGID_2_)" fill="#4386C7" points="364.232,77.561 421.426,264.768 421.159,264.85 363.941,77.561 				
					"/>
				<polygon clip-path="url(#SVGID_2_)" fill="#4487C7" points="364.524,77.561 421.693,264.687 421.426,264.768 364.232,77.561 
									"/>
				<polygon clip-path="url(#SVGID_2_)" fill="#4488C7" points="364.816,77.561 421.96,264.605 421.693,264.687 364.524,77.561 				
					"/>
				<polygon clip-path="url(#SVGID_2_)" fill="#4488C8" points="365.108,77.561 422.227,264.524 421.96,264.605 364.816,77.561 				
					"/>
				<polygon clip-path="url(#SVGID_2_)" fill="#4589C8" points="365.4,77.561 422.494,264.442 422.227,264.524 365.108,77.561 				
					"/>
				<polygon clip-path="url(#SVGID_2_)" fill="#4589C9" points="365.692,77.561 422.761,264.36 422.494,264.442 365.4,77.561 				
					"/>
				<polygon clip-path="url(#SVGID_2_)" fill="#458AC9" points="365.983,77.561 423.027,264.279 422.761,264.36 365.692,77.561 				
					"/>
				<polygon clip-path="url(#SVGID_2_)" fill="#458BC9" points="366.275,77.561 423.294,264.197 423.027,264.279 365.983,77.561 
									"/>
				<polygon clip-path="url(#SVGID_2_)" fill="#468BCA" points="366.567,77.561 423.561,264.116 423.294,264.197 366.275,77.561 
									"/>
				<polygon clip-path="url(#SVGID_2_)" fill="#468CCA" points="366.859,77.561 423.828,264.034 423.561,264.116 366.567,77.561 
									"/>
				<polygon clip-path="url(#SVGID_2_)" fill="#468DCB" points="367.151,77.561 424.095,263.953 423.828,264.034 366.859,77.561 
									"/>
				<polygon clip-path="url(#SVGID_2_)" fill="#478DCB" points="367.443,77.561 424.362,263.871 424.095,263.953 367.151,77.561 
									"/>
				<polygon clip-path="url(#SVGID_2_)" fill="#478ECC" points="367.734,77.561 424.629,263.79 424.362,263.871 367.443,77.561 				
					"/>
				<polygon clip-path="url(#SVGID_2_)" fill="#478ECC" points="368.026,77.561 424.896,263.708 424.629,263.79 367.734,77.561 				
					"/>
				<polygon clip-path="url(#SVGID_2_)" fill="#488FCD" points="368.318,77.561 425.163,263.627 424.896,263.708 368.026,77.561 
									"/>
				<polygon clip-path="url(#SVGID_2_)" fill="#4890CD" points="368.61,77.561 425.43,263.545 425.163,263.627 368.318,77.561 				
					"/>
				<polygon clip-path="url(#SVGID_2_)" fill="#4890CD" points="368.902,77.561 425.697,263.463 425.43,263.545 368.61,77.561 				
					"/>
				<polygon clip-path="url(#SVGID_2_)" fill="#4991CE" points="369.194,77.561 425.964,263.382 425.697,263.463 368.902,77.561 
									"/>
				<polygon clip-path="url(#SVGID_2_)" fill="#4992CE" points="369.486,77.561 426.23,263.3 425.964,263.382 369.194,77.561 				
					"/>
				<polygon clip-path="url(#SVGID_2_)" fill="#4992CF" points="369.777,77.561 426.497,263.219 426.23,263.3 369.486,77.561 				
					"/>
				<polygon clip-path="url(#SVGID_2_)" fill="#4A93CF" points="370.069,77.561 426.764,263.137 426.497,263.219 369.777,77.561 
									"/>
				<polygon clip-path="url(#SVGID_2_)" fill="#4A94D0" points="370.361,77.561 427.031,263.056 426.764,263.137 370.069,77.561 
									"/>
				<polygon clip-path="url(#SVGID_2_)" fill="#4A94D0" points="370.653,77.561 427.298,262.974 427.031,263.056 370.361,77.561 
									"/>
				<polygon clip-path="url(#SVGID_2_)" fill="#4B95D1" points="370.945,77.561 427.565,262.893 427.298,262.974 370.653,77.561 
									"/>
				<polygon clip-path="url(#SVGID_2_)" fill="#4B96D1" points="371.237,77.561 427.832,262.811 427.565,262.893 370.945,77.561 
									"/>
				<polygon clip-path="url(#SVGID_2_)" fill="#4B96D1" points="371.528,77.561 428.099,262.73 427.832,262.811 371.237,77.561 				
					"/>
				<polygon clip-path="url(#SVGID_2_)" fill="#4B97D2" points="371.82,77.561 428.366,262.648 428.099,262.73 371.528,77.561 				
					"/>
				<polygon clip-path="url(#SVGID_2_)" fill="#4C98D2" points="372.112,77.561 428.633,262.566 428.366,262.648 371.82,77.561 				
					"/>
				<polygon clip-path="url(#SVGID_2_)" fill="#4C98D3" points="372.404,77.561 428.9,262.485 428.633,262.566 372.112,77.561 				
					"/>
				<polygon clip-path="url(#SVGID_2_)" fill="#4C99D3" points="372.696,77.561 429.167,262.403 428.9,262.485 372.404,77.561 				
					"/>
				<polygon clip-path="url(#SVGID_2_)" fill="#4D9AD4" points="372.988,77.561 429.434,262.322 429.167,262.403 372.696,77.561 
									"/>
				<polygon clip-path="url(#SVGID_2_)" fill="#4D9AD4" points="373.279,77.561 429.7,262.24 429.434,262.322 372.988,77.561 				
					"/>
				<polygon clip-path="url(#SVGID_2_)" fill="#4D9BD5" points="373.571,77.561 429.967,262.159 429.7,262.24 373.279,77.561 				
					"/>
				<polygon clip-path="url(#SVGID_2_)" fill="#4E9CD5" points="373.863,77.561 430.234,262.077 429.967,262.159 373.571,77.561 
									"/>
				<polygon clip-path="url(#SVGID_2_)" fill="#4E9CD5" points="374.155,77.561 430.501,261.996 430.234,262.077 373.863,77.561 
									"/>
				<polygon clip-path="url(#SVGID_2_)" fill="#4E9DD6" points="374.447,77.561 430.768,261.914 430.501,261.996 374.155,77.561 
									"/>
				<polygon clip-path="url(#SVGID_2_)" fill="#4F9ED6" points="374.739,77.561 431.035,261.833 430.768,261.914 374.447,77.561 
									"/>
				<polygon clip-path="url(#SVGID_2_)" fill="#4F9ED7" points="375.03,77.561 431.302,261.751 431.035,261.833 374.739,77.561 				
					"/>
				<polygon clip-path="url(#SVGID_2_)" fill="#4F9FD7" points="375.322,77.561 431.569,261.669 431.302,261.751 375.03,77.561 				
					"/>
				<polygon clip-path="url(#SVGID_2_)" fill="#50A0D8" points="375.614,77.561 431.836,261.588 431.569,261.669 375.322,77.561 
									"/>
				<polygon clip-path="url(#SVGID_2_)" fill="#50A0D8" points="375.906,77.561 432.103,261.506 431.836,261.588 375.614,77.561 
									"/>
				<polygon clip-path="url(#SVGID_2_)" fill="#50A1D9" points="376.198,77.561 432.37,261.425 432.103,261.506 375.906,77.561 				
					"/>
				<polygon clip-path="url(#SVGID_2_)" fill="#51A2D9" points="376.49,77.561 432.637,261.343 432.37,261.425 376.198,77.561 				
					"/>
				<polygon clip-path="url(#SVGID_2_)" fill="#51A2DA" points="376.781,77.561 432.904,261.262 432.637,261.343 376.49,77.561 				
					"/>
				<polygon clip-path="url(#SVGID_2_)" fill="#51A3DA" points="377.073,77.561 433.17,261.18 432.904,261.262 376.781,77.561 				
					"/>
				<polygon clip-path="url(#SVGID_2_)" fill="#52A4DA" points="377.365,77.561 433.437,261.099 433.17,261.18 377.073,77.561 				
					"/>
				<polygon clip-path="url(#SVGID_2_)" fill="#52A4DB" points="377.657,77.561 433.704,261.017 433.437,261.099 377.365,77.561 
									"/>
				<polygon clip-path="url(#SVGID_2_)" fill="#52A5DB" points="377.949,77.561 433.971,260.936 433.704,261.017 377.657,77.561 
									"/>
				<polygon clip-path="url(#SVGID_2_)" fill="#53A6DC" points="378.241,77.561 434.238,260.854 433.971,260.936 377.949,77.561 
									"/>
				<polygon clip-path="url(#SVGID_2_)" fill="#53A6DC" points="378.532,77.561 434.505,260.772 434.238,260.854 378.241,77.561 
									"/>
				<polygon clip-path="url(#SVGID_2_)" fill="#53A7DD" points="378.824,77.561 434.772,260.691 434.505,260.772 378.532,77.561 
									"/>
				<polygon clip-path="url(#SVGID_2_)" fill="#54A8DD" points="379.116,77.561 435.039,260.609 434.772,260.691 378.824,77.561 
									"/>
				<polygon clip-path="url(#SVGID_2_)" fill="#54A8DE" points="379.408,77.561 435.306,260.528 435.039,260.609 379.116,77.561 
									"/>
				<polygon clip-path="url(#SVGID_2_)" fill="#55A9DE" points="379.7,77.561 435.573,260.446 435.306,260.528 379.408,77.561 				
					"/>
				<polygon clip-path="url(#SVGID_2_)" fill="#55AADE" points="379.992,77.561 435.84,260.365 435.573,260.446 379.7,77.561 				
					"/>
				<polygon clip-path="url(#SVGID_2_)" fill="#55ABDF" points="380.283,77.561 436.107,260.283 435.84,260.365 379.992,77.561 				
					"/>
				<polygon clip-path="url(#SVGID_2_)" fill="#56ABDF" points="380.575,77.561 436.373,260.202 436.107,260.283 380.283,77.561 
									"/>
				<polygon clip-path="url(#SVGID_2_)" fill="#56ACE0" points="380.867,77.561 436.64,260.12 436.373,260.202 380.575,77.561 				
					"/>
				<polygon clip-path="url(#SVGID_2_)" fill="#56ADE0" points="381.159,77.561 436.907,260.038 436.64,260.12 380.867,77.561 				
					"/>
				<polygon clip-path="url(#SVGID_2_)" fill="#57ADE1" points="381.451,77.561 437.174,259.957 436.907,260.038 381.159,77.561 
									"/>
				<polygon clip-path="url(#SVGID_2_)" fill="#57AEE1" points="381.743,77.561 437.441,259.875 437.174,259.957 381.451,77.561 
									"/>
				<polygon clip-path="url(#SVGID_2_)" fill="#57AFE2" points="382.034,77.561 437.708,259.794 437.441,259.875 381.743,77.561 
									"/>
				<polygon clip-path="url(#SVGID_2_)" fill="#58AFE2" points="382.326,77.561 437.975,259.712 437.708,259.794 382.034,77.561 
									"/>
				<polygon clip-path="url(#SVGID_2_)" fill="#58B0E3" points="382.618,77.561 438.242,259.631 437.975,259.712 382.326,77.561 
									"/>
				<polygon clip-path="url(#SVGID_2_)" fill="#59B1E3" points="382.91,77.561 438.509,259.549 438.242,259.631 382.618,77.561 				
					"/>
				<polygon clip-path="url(#SVGID_2_)" fill="#59B1E3" points="383.202,77.561 438.776,259.468 438.509,259.549 382.91,77.561 				
					"/>
				<polygon clip-path="url(#SVGID_2_)" fill="#59B2E4" points="383.494,77.561 439.043,259.386 438.776,259.468 383.202,77.561 
									"/>
				<polygon clip-path="url(#SVGID_2_)" fill="#5AB3E4" points="383.785,77.561 439.31,259.305 439.043,259.386 383.494,77.561 				
					"/>
				<polygon clip-path="url(#SVGID_2_)" fill="#5AB3E5" points="384.077,77.561 439.577,259.223 439.31,259.305 383.785,77.561 				
					"/>
				<polygon clip-path="url(#SVGID_2_)" fill="#5AB4E5" points="384.369,77.561 439.843,259.141 439.577,259.223 384.077,77.561 
									"/>
				<polygon clip-path="url(#SVGID_2_)" fill="#5BB5E6" points="384.661,77.561 440.11,259.06 439.843,259.141 384.369,77.561 				
					"/>
				<polygon clip-path="url(#SVGID_2_)" fill="#5BB6E6" points="384.953,77.561 440.377,258.978 440.11,259.06 384.661,77.561 				
					"/>
				<polygon clip-path="url(#SVGID_2_)" fill="#5BB6E7" points="385.245,77.561 440.644,258.897 440.377,258.978 384.953,77.561 
									"/>
				<polygon clip-path="url(#SVGID_2_)" fill="#5CB7E7" points="385.536,77.561 440.911,258.815 440.644,258.897 385.245,77.561 
									"/>
				<polygon clip-path="url(#SVGID_2_)" fill="#5CB8E8" points="385.828,77.561 441.178,258.734 440.911,258.815 385.536,77.561 
									"/>
				<polygon clip-path="url(#SVGID_2_)" fill="#5DB8E8" points="386.12,77.561 441.445,258.652 441.178,258.734 385.828,77.561 				
					"/>
				<polygon clip-path="url(#SVGID_2_)" fill="#5DB9E9" points="386.412,77.561 441.712,258.571 441.445,258.652 386.12,77.561 				
					"/>
				<polygon clip-path="url(#SVGID_2_)" fill="#5DBAE9" points="386.704,77.561 441.979,258.489 441.712,258.571 386.412,77.561 
									"/>
				<polygon clip-path="url(#SVGID_2_)" fill="#5EBBE9" points="386.996,77.561 442.246,258.408 441.979,258.489 386.704,77.561 
									"/>
				<polygon clip-path="url(#SVGID_2_)" fill="#5EBBEA" points="387.287,77.561 442.513,258.326 442.246,258.408 386.996,77.561 
									"/>
				<polygon clip-path="url(#SVGID_2_)" fill="#5FBCEA" points="387.579,77.561 442.78,258.244 442.513,258.326 387.287,77.561 				
					"/>
				<polygon clip-path="url(#SVGID_2_)" fill="#5FBDEB" points="387.871,77.561 443.047,258.163 442.78,258.244 387.579,77.561 				
					"/>
				<polygon clip-path="url(#SVGID_2_)" fill="#60BEEB" points="388.163,77.561 443.313,258.081 443.047,258.163 387.871,77.561 
									"/>
				<polygon clip-path="url(#SVGID_2_)" fill="#60BEEC" points="388.455,77.561 443.58,258 443.313,258.081 388.163,77.561 				"/>
				<polygon clip-path="url(#SVGID_2_)" fill="#60BFEC" points="388.747,77.561 443.847,257.918 443.58,258 388.455,77.561 				"/>
				<polygon clip-path="url(#SVGID_2_)" fill="#61C0ED" points="389.038,77.561 444.114,257.837 443.847,257.918 388.747,77.561 
									"/>
				<polygon clip-path="url(#SVGID_2_)" fill="#61C0ED" points="389.33,77.561 444.381,257.755 444.114,257.837 389.038,77.561 				
					"/>
				<polygon clip-path="url(#SVGID_2_)" fill="#62C1EE" points="389.622,77.561 444.648,257.674 444.381,257.755 389.33,77.561 				
					"/>
				<polygon clip-path="url(#SVGID_2_)" fill="#62C2EE" points="389.914,77.561 444.915,257.592 444.648,257.674 389.622,77.561 
									"/>
				<polygon clip-path="url(#SVGID_2_)" fill="#62C3EF" points="390.206,77.561 445.182,257.511 444.915,257.592 389.914,77.561 
									"/>
				<polygon clip-path="url(#SVGID_2_)" fill="#63C3EF" points="390.498,77.561 445.449,257.429 445.182,257.511 390.206,77.561 
									"/>
				<polygon clip-path="url(#SVGID_2_)" fill="#63C4F0" points="390.789,77.561 445.716,257.347 445.449,257.429 390.498,77.561 
									"/>
				<polygon clip-path="url(#SVGID_2_)" fill="#64C5F0" points="391.081,77.561 445.983,257.266 445.716,257.347 390.789,77.561 
									"/>
				<polygon clip-path="url(#SVGID_2_)" fill="#64C6F1" points="391.373,77.561 446.25,257.184 445.983,257.266 391.081,77.561 				
					"/>
				<polygon clip-path="url(#SVGID_2_)" fill="#64C7F1" points="391.665,77.561 446.516,257.103 446.25,257.184 391.373,77.561 				
					"/>
				<polygon clip-path="url(#SVGID_2_)" fill="#65C7F2" points="391.957,77.561 446.783,257.021 446.516,257.103 391.665,77.561 
									"/>
				<polygon clip-path="url(#SVGID_2_)" fill="#65C8F2" points="392.249,77.561 447.05,256.94 446.783,257.021 391.957,77.561 				
					"/>
				<polygon clip-path="url(#SVGID_2_)" fill="#65C9F3" points="392.54,77.561 447.317,256.858 447.05,256.94 392.249,77.561 				
					"/>
				<polygon clip-path="url(#SVGID_2_)" fill="#66CAF3" points="392.832,77.561 447.584,256.777 447.317,256.858 392.54,77.561 				
					"/>
				<polygon clip-path="url(#SVGID_2_)" fill="#66CBF4" points="393.124,77.561 447.851,256.695 447.584,256.777 392.832,77.561 
									"/>
				<polygon clip-path="url(#SVGID_2_)" fill="#66CCF5" points="393.416,77.561 448.118,256.614 447.851,256.695 393.124,77.561 
									"/>
				<polygon clip-path="url(#SVGID_2_)" fill="#66CEF6" points="393.708,77.561 448.385,256.532 448.118,256.614 393.416,77.561 
									"/>
				<polygon clip-path="url(#SVGID_2_)" fill="#66CEF6" points="460.032,252.974 448.385,256.532 393.708,77.561 460.032,77.561 
									"/>
			</g>
		</g>
	</g>
	<g>
		<path fill="#FFFFFF" d="M281.495,332.419c0,2.615-2.12,4.735-4.735,4.735h-37.654c-2.615,0-4.735-2.12-4.735-4.735l0,0
			c0-2.615,2.12-4.735,4.735-4.735h37.654C279.375,327.684,281.495,329.804,281.495,332.419L281.495,332.419z"/>
	</g>
</g>
</svg>
